{"asset":{"version":"2.0","generator":"THREE.GLTFExporter"},"scenes":[{"name":"AuxScene","nodes":[2]}],"scene":0,"nodes":[{"name":"object_0","mesh":0},{"name":"object_1","mesh":1},{"children":[0,1]}],"bufferViews":[{"buffer":0,"byteOffset":0,"byteLength":12096,"target":34962,"byteStride":12},{"buffer":0,"byteOffset":12096,"byteLength":12096,"target":34962,"byteStride":12},{"buffer":0,"byteOffset":24192,"byteLength":8064,"target":34962,"byteStride":8},{"buffer":0,"byteOffset":32256,"byteLength":570240,"target":34962,"byteStride":12},{"buffer":0,"byteOffset":602496,"byteLength":570240,"target":34962,"byteStride":12},{"buffer":0,"byteOffset":1172736,"byteLength":380160,"target":34962,"byteStride":8}],"buffers":[{"byteLength":1552896,"uri":"data:application/octet-stream;base64,"}],"accessors":[{"bufferView":0,"componentType":5126,"count":1008,"max":[18.044519424438477,73.0842056274414,16.295217514038086],"min":[-18.04450035095215,60.18510055541992,2.6775100231170654],"type":"VEC3"},{"bufferView":1,"componentType":5126,"count":1008,"max":[0.9993399977684021,0.8179680109024048,0.9453679919242859],"min":[-0.9993399977684021,-0.38105499744415283,-0.17603799700737],"type":"VEC3"},{"bufferView":2,"componentType":5126,"count":1008,"max":[0.9968289732933044,0.9629999995231628],"min":[0.005824000108987093,-0.004455000162124634],"type":"VEC2"},{"bufferView":3,"componentType":5126,"count":47520,"max":[37.50212860107422,96.90775299072266,23.484098434448242],"min":[-38.16899871826172,0.07504169642925262,-26.29520034790039],"type":"VEC3"},{"bufferView":4,"componentType":5126,"count":47520,"max":[0.9999690055847168,0.9999399781227112,0.9999909996986389],"min":[-0.9999690055847168,-0.9999979734420776,-0.9997609853744507],"type":"VEC3"},{"bufferView":5,"componentType":5126,"count":47520,"max":[0.9902309775352478,0.9902369976043701],"min":[0.00291300006210804,0.005491000134497881],"type":"VEC2"}],"materials":[{"pbrMetallicRoughness":{"metallicFactor":0.5,"roughnessFactor":0.5},"name":"object_0"},{"pbrMetallicRoughness":{"metallicFactor":0.5,"roughnessFactor":0.5},"name":"object_1"}],"meshes":[{"primitives":[{"mode":4,"attributes":{"POSITION":0,"NORMAL":1,"TEXCOORD_0":2},"material":0}]},{"primitives":[{"mode":4,"attributes":{"POSITION":3,"NORMAL":4,"TEXCOORD_0":5},"material":1}]}]}